#!OML:ASF F:\VICON\USERDATA\INSTALL\rory3\rory3.ASF
:FULLY-SPECIFIED
:DEGREES
134
root -0.0913428 17.4414 4.30193 5.3242 -61.5464 12.2251
lowerback -8.27671 -0.398342 7.33558
upperback -8.93337 -1.17337 -0.992452
thorax -4.92549 -1.17009 -5.19053
lowerneck -8.96298 13.4813 6.32883
upperneck 26.2613 18.3402 -2.50879
head 10.7418 8.67143 0.346119
rclavicle -6.85807e-015 -3.18055e-015
rhumerus 8.18477 -18.9038 5.56629
rradius 117.228
rwrist -57.4275
rhand -3.36054 -43.9387
rfingers 7.12502
rthumb 22.3679 -72.6638
lclavicle -6.85807e-015 -3.18055e-015
lhumerus 31.3248 19.3126 -3.04537
lradius 36.4441
lwrist 55.5644
lhand -22.1043 -25.0128
lfingers 7.12502
lthumb 4.30803 4.92343
rfemur -11.6863 -1.25789 -3.01452
rtibia 33.2326
rfoot -2.90912 -19.5887
rtoes -20.1837
lfemur -22.7154 -1.92947 -31.4691
ltibia 19.464
lfoot -12.1101 -4.84177
ltoes 20.607
135
root -0.0822846 17.4345 4.29931 5.33998 -61.5506 12.1515
lowerback -8.28927 -0.345519 7.31906
upperback -8.84845 -1.1018 -1.01423
thorax -4.81576 -1.12516 -5.2034
lowerneck -9.17809 13.4378 6.34
upperneck 26.5641 18.2498 -2.38644
head 10.8795 8.62888 0.400921
rclavicle -5.02925e-014 4.77083e-015
rhumerus 8.09397 -18.6599 5.41245
rradius 117.355
rwrist -57.4456
rhand -4.21522 -43.8705
rfingers 7.12502
rthumb 21.5473 -72.6919
lclavicle -5.02925e-014 4.77083e-015
lhumerus 31.3495 18.9183 -3.12989
lradius 36.5177
lwrist 55.4232
lhand -22.6821 -25.5813
lfingers 7.12502
lthumb 3.75005 4.36548
rfemur -11.8741 -1.38225 -2.97897
rtibia 33.5899
rfoot -2.3699 -19.5724
rtoes -21.454
lfemur -22.8251 -1.7756 -31.4694
ltibia 19.6822
lfoot -12.1551 -5.05264
ltoes 20.898
136
root -0.0716462 17.4331 4.28428 5.1835 -61.4966 12.3139
lowerback -8.20267 -0.378953 7.06401
upperback -8.81593 -1.1268 -1.03907
thorax -4.82211 -1.1219 -5.08537
lowerneck -9.33393 13.3513 6.50817
upperneck 26.846 18.1459 -2.54403
head 11.0461 8.56252 0.334221
rclavicle -1.32192e-014 -3.18055e-015
rhumerus 8.06576 -18.5657 5.2534
rradius 117.572
rwrist -57.6328
rhand -4.64449 -43.7361
rfingers 7.12502
rthumb 21.135 -72.6041
lclavicle -1.32192e-014 -3.18055e-015
lhumerus 31.3914 18.6943 -3.11732
lradius 36.5889
lwrist 55.2376
lhand -22.9365 -24.1693
lfingers 7.12502
lthumb 3.50439 5.78162
rfemur -12.1181 -1.65979 -3.01021
rtibia 33.9482
rfoot -1.11964 -19.5356
rtoes -24.3839
lfemur -23.0009 -1.44028 -31.6094
ltibia 19.921
lfoot -12.2445 -5.31688
ltoes 21.2517
137
root -0.0647146 17.4271 4.27691 4.92293 -61.4999 12.4968
lowerback -8.14815 -0.390091 6.98767
upperback -8.73475 -1.13505 -1.14766
thorax -4.7661 -1.11907 -5.15776
lowerneck -9.51144 13.2774 6.91364
upperneck 27.2158 18.0739 -2.89999
head 11.3011 8.50426 0.177745
rclavicle -2.41523e-014 -3.18055e-014
rhumerus 8.11587 -18.4412 4.90351
rradius 117.526
rwrist -57.5776
rhand -4.58981 -43.7639
rfingers 7.12502
rthumb 21.1875 -72.626
lclavicle -2.41523e-014 -3.18055e-014
lhumerus 31.5931 18.7774 -3.01122
lradius 36.6653
lwrist 55.2693
lhand -23.0132 -18.329
lfingers 7.12502
lthumb 3.4303 11.6232
rfemur -12.2275 -1.77446 -3.10865
rtibia 34.2464
rfoot -1.39802 -19.5152
rtoes -24.0183
lfemur -23.0921 -1.20384 -31.791
ltibia 20.1971
lfoot -12.3858 -5.32623
ltoes 21.7582
138
root -0.0595253 17.418 4.27497 4.68299 -61.5026 12.6248
lowerback -8.12037 -0.351547 7.00451
upperback -8.66434 -1.08247 -1.22319
thorax -4.70093 -1.09 -5.24606
lowerneck -9.64679 13.2287 7.13038
upperneck 27.5845 18.0426 -3.12907
head 11.5171 8.46385 0.0896508
rclavicle -3.27001e-014 7.15625e-015
rhumerus 8.14733 -18.1736 4.65051
rradius 117.441
rwrist -57.4758
rhand -4.74349 -44.2785
rfingers 7.12502
rthumb 21.0399 -73.1572
lclavicle -3.27001e-014 7.15625e-015
lhumerus 31.7329 18.7386 -2.93551
lradius 36.8314
lwrist 55.4716
lhand -21.245 -23.1032
lfingers 7.12502
lthumb 5.13782 6.81452
rfemur -12.222 -1.61591 -3.19291
rtibia 34.4926
rfoot -2.54391 -19.5699
rtoes -21.4705
lfemur -23.1556 -0.989478 -31.9514
ltibia 20.5066
lfoot -12.5654 -5.41984
ltoes 21.5036
139
root -0.0522401 17.4122 4.27549 4.79185 -61.4518 12.3129
lowerback -8.03523 -0.297869 7.23621
upperback -8.59364 -1.01073 -1.18314
thorax -4.66975 -1.05986 -5.33163
lowerneck -9.66638 13.1617 6.93999
upperneck 27.8263 18.0093 -3.16938
head 11.5964 8.41473 0.10524
rclavicle -1.22253e-014 -1.59028e-014
rhumerus 8.19271 -17.9114 4.59808
rradius 117.476
rwrist -57.6996
rhand -4.94356 -44.5069
rfingers 7.12502
rthumb 20.8476 -73.4068
lclavicle -1.22253e-014 -1.59028e-014
lhumerus 31.8236 18.6476 -2.69079
lradius 36.9656
lwrist 55.4085
lhand -20.4847 -24.7595
lfingers 7.12502
lthumb 5.87186 5.13918
rfemur -12.1446 -1.27976 -3.00456
rtibia 34.7025
rfoot -3.01395 -19.7929
rtoes -20.395
lfemur -23.1857 -1.20241 -31.7512
ltibia 20.8853
lfoot -12.8148 -5.27078
ltoes 20.4603
140
root -0.0438134 17.4052 4.27666 4.94114 -61.4146 11.938
lowerback -7.9453 -0.299825 7.45968
upperback -8.46043 -1.01135 -1.13663
thorax -4.58402 -1.05991 -5.40883
lowerneck -9.66495 13.163 6.79519
upperneck 27.9426 18.0597 -3.21518
head 11.6335 8.41213 0.120123
rclavicle -4.11484e-014 -1.35174e-014
rhumerus 8.32974 -17.7149 4.35198
rradius 117.47
rwrist -57.783
rhand -4.54192 -43.8183
rfingers 7.12502
rthumb 21.2335 -72.6753
lclavicle -4.11484e-014 -1.35174e-014
lhumerus 31.9151 18.9115 -2.41838
lradius 37.0677
lwrist 55.4735
lhand -21.0477 -27.7162
lfingers 7.12502
lthumb 5.32826 2.19684
rfemur -12.0881 -1.05266 -2.78453
rtibia 34.9142
rfoot -2.91031 -19.9892
rtoes -20.6903
lfemur -23.1953 -1.54292 -31.4451
ltibia 21.2723
lfoot -13.0248 -5.09051
ltoes 19.1834
141
root -0.0349468 17.3923 4.27313 4.87123 -61.452 11.8373
lowerback -7.87262 -0.311767 7.49576
upperback -8.31225 -1.01989 -1.13574
thorax -4.46746 -1.05334 -5.42917
lowerneck -9.73391 13.1889 6.88489
upperneck 28.0492 18.1196 -3.34243
head 11.7167 8.42503 0.0827787
rclavicle 6.06293e-014 2.46493e-014
rhumerus 8.49958 -17.4984 3.95739
rradius 117.48
rwrist -57.5519
rhand -4.40418 -43.4519
rfingers 7.12502
rthumb 21.3658 -72.294
lclavicle 6.06293e-014 2.46493e-014
lhumerus 31.7748 18.8999 -2.73159
lradius 37.2612
lwrist 56.0656
lhand -20.9857 -31.2717
lfingers 7.12502
lthumb 5.38814 -1.3602
rfemur -12.1291 -0.951229 -2.73022
rtibia 35.1515
rfoot -2.67034 -20.0678
rtoes -21.4075
lfemur -23.2298 -1.58636 -31.3387
ltibia 21.5871
lfoot -13.1395 -5.14259
ltoes 18.9749
142
root -0.026265 17.382 4.26755 4.91688 -61.4998 11.6892
lowerback -7.83649 -0.236395 7.57054
upperback -8.23294 -0.918638 -1.16367
thorax -4.39035 -0.999875 -5.49807
lowerneck -9.81981 13.1178 6.81985
upperneck 28.2388 18.01 -3.25252
head 11.784 8.37008 0.117946
rclavicle -8.44835e-015 2.14687e-014
rhumerus 8.48625 -17.2555 3.78531
rradius 117.496
rwrist -57.3582
rhand -5.18979 -44.1788
rfingers 7.12502
rthumb 20.6111 -73.1045
lclavicle -8.44835e-015 2.14687e-014
lhumerus 31.7393 18.5764 -3.04317
lradius 37.4527
lwrist 56.4143
lhand -20.9725 -30.0656
lfingers 7.12502
lthumb 5.40087 -0.154458
rfemur -12.2659 -0.857294 -2.65791
rtibia 35.433
rfoot -3.0806 -20.0447
rtoes -20.5952
lfemur -23.3008 -1.77817 -31.1942
ltibia 21.7938
lfoot -13.1707 -4.99957
ltoes 19.7828
143
root -0.019879 17.3768 4.26643 4.81694 -61.5267 11.7386
lowerback -7.8279 -0.250745 7.59062
upperback -8.22101 -0.938322 -1.17947
thorax -4.38662 -1.01062 -5.52689
lowerneck -9.69809 13.1343 6.70497
upperneck 28.4568 18.034 -3.12519
head 11.8202 8.37863 0.17838
rclavicle -5.85421e-014 -4.29375e-014
rhumerus 8.82871 -17.0162 3.36151
rradius 117.218
rwrist -57.1089
rhand -5.31148 -44.3242
rfingers 7.12502
rthumb 20.4941 -73.2625
lclavicle -5.85421e-014 -4.29375e-014
lhumerus 31.5577 18.3609 -3.15481
lradius 37.6374
lwrist 56.3318
lhand -21.8515 -24.2124
lfingers 7.12502
lthumb 4.5522 5.71872
rfemur -12.4054 -0.788224 -2.70085
rtibia 35.7411
rfoot -3.62524 -19.9783
rtoes -19.582
lfemur -23.3198 -2.23372 -31.1276
ltibia 21.9185
lfoot -13.2094 -4.55072
ltoes 19.8732
144
root -0.0128967 17.3727 4.26775 4.46958 -61.5362 12.0461
lowerback -7.77128 -0.25586 7.43638
upperback -8.16969 -0.935343 -1.2915
thorax -4.35952 -1.0007 -5.55806
lowerneck -9.73091 13.1175 7.13863
upperneck 28.7281 18.0312 -3.4444
head 12.0191 8.367 0.0208607
rclavicle 5.46658e-014 -2.38542e-015
rhumerus 9.04994 -16.8475 2.85756
rradius 116.889
rwrist -56.8488
rhand -4.51462 -43.3758
rfingers 7.12502
rthumb 21.2597 -72.2299
lclavicle 5.46658e-014 -2.38542e-015
lhumerus 31.6002 18.2301 -3.15413
lradius 37.7306
lwrist 56.2879
lhand -21.8395 -22.0393
lfingers 7.12502
lthumb 4.56371 7.89157
rfemur -12.5226 -0.887273 -2.87263
rtibia 36.0319
rfoot -2.7192 -20.0148
rtoes -22.337
lfemur -23.2901 -2.55686 -31.2419
ltibia 22.0135
lfoot -13.3055 -4.24108
ltoes 19.2353
145
root -0.00428372 17.3669 4.26794 4.18378 -61.5263 12.2971
lowerback -7.7263 -0.192305 7.25256
upperback -8.10411 -0.838318 -1.3485
thorax -4.29357 -0.937767 -5.51101
lowerneck -9.77501 13.012 7.35722
upperneck 28.8924 17.9465 -3.7892
head 12.152 8.29908 -0.134406
rclavicle 0 3.97569e-015
rhumerus 9.05382 -16.7051 2.63396
rradius 116.777
rwrist -56.6915
rhand -4.13966 -43.0617
rfingers 7.12502
rthumb 21.6198 -71.8748
lclavicle 0 3.97569e-015
lhumerus 31.7674 18.0658 -2.99847
lradius 37.7838
lwrist 56.4006
lhand -21.2633 -25.2722
lfingers 7.12502
lthumb 5.12008 4.6459
rfemur -12.6254 -1.15769 -3.03739
rtibia 36.2843
rfoot -2.04813 -19.8745
rtoes -24.0799
lfemur -23.2917 -2.64543 -31.3716
ltibia 22.1107
lfoot -13.3409 -4.22751
ltoes 19.3332
146
root 0.0022041 17.3607 4.26711 4.0436 -61.5472 12.3355
lowerback -7.67701 -0.135223 7.15559
upperback -8.01291 -0.750645 -1.31279
thorax -4.20528 -0.878974 -5.41522
lowerneck -9.77434 12.9231 7.21045
upperneck 28.9463 17.8874 -3.90905
head 12.1666 8.24028 -0.165084
rclavicle -1.97791e-014 -7.15625e-015
rhumerus 9.12688 -16.6514 2.40911
rradius 116.61
rwrist -56.6276
rhand -4.27689 -43.5157
rfingers 7.12502
rthumb 21.488 -72.3438
lclavicle -1.97791e-014 -7.15625e-015
lhumerus 31.8584 18.0663 -2.80669
lradius 37.9379
lwrist 56.5695
lhand -21.3456 -26.0327
lfingers 7.12502
lthumb 5.04068 3.88735
rfemur -12.6503 -1.12913 -3.07378
rtibia 36.4926
rfoot -2.1978 -19.8541
rtoes -23.8946
lfemur -23.2918 -2.60018 -31.4175
ltibia 22.2486
lfoot -13.2725 -4.31166
ltoes 20.9061
